<svg width="256" height="256" viewBox="0 0 256 256" fill="none" xmlns="http://www.w3.org/2000/svg">
<g clip-path="url(#clip0)">
<path d="M68.2143 176.582V163.495L56.8945 156.94L45.5524 163.495V176.582L56.8945 183.114L68.2143 176.582Z" fill="#E52000" stroke="white"/>
<path d="M68.2143 155.465V142.378L56.8945 135.845L45.5524 142.378V155.465L56.8945 162.019L68.2143 155.465Z" fill="#E52000" stroke="white"/>
<path d="M68.2143 134.369V121.281L56.8945 114.749L45.5524 121.281V134.369L56.8945 140.901L68.2143 134.369Z" fill="#E52000" stroke="white"/>
<path d="M68.2143 113.473V100.385L56.8945 93.853L45.5524 100.385V113.473L56.8945 120.005L68.2143 113.473Z" fill="#E52000" stroke="white"/>
<path d="M68.1471 92.9373V79.8502L56.8049 73.2954L45.4851 79.8502V92.9373L56.8049 99.4696L68.1471 92.9373Z" fill="#E52000" stroke="white"/>
<path d="M83.9187 186.27V173.183L72.5989 166.628L61.2567 173.183V186.27L72.5989 192.802L83.9187 186.27Z" fill="#E52000" stroke="white"/>
<path d="M100.429 196.741V183.653L89.109 177.121L77.7668 183.653V196.741L89.109 203.295L100.429 196.741Z" fill="#E52000" stroke="white"/>
<path d="M117.073 207.367V194.28L105.753 187.748L94.411 194.28V207.367L105.753 213.922L117.073 207.367Z" fill="#E52000" stroke="white"/>
<path d="M83.8513 103.564V90.4767L72.5315 83.9443L61.1893 90.4767V103.564L72.5315 110.119L83.8513 103.564Z" fill="#E52000" stroke="white"/>
<path d="M100.362 114.056V100.969L89.02 94.4141L77.7002 100.969V114.056L89.02 120.588L100.362 114.056Z" fill="#E52000" stroke="white"/>
<path d="M117.073 124.078V110.991L105.753 104.436L94.411 110.991V124.078L105.753 130.61L117.073 124.078Z" fill="#E52000" stroke="white"/>
<path d="M118.169 220.79V207.703L129.489 201.17L140.831 207.703V220.79L129.489 227.345L118.169 220.79Z" fill="#0A31F9" stroke="white"/>
<path d="M118.169 199.693V186.606L129.489 180.073L140.831 186.606V199.693L129.489 206.247L118.169 199.693Z" fill="#0A31F9" stroke="white"/>
<path d="M183.582 179.358V166.271L194.924 159.738L206.244 166.271V179.358L194.924 185.89L183.582 179.358Z" fill="#0A31F9" stroke="white"/>
<path d="M183.582 158.261V145.173L194.924 138.619L206.244 145.173V158.261L194.924 164.793L183.582 158.261Z" fill="#0A31F9" stroke="white"/>
<path d="M183.582 137.143V124.078L194.924 117.523L206.244 124.078V137.143L194.924 143.698L183.582 137.143Z" fill="#0A31F9" stroke="white"/>
<path d="M183.582 116.249V103.185L194.924 96.6299L206.244 103.185V116.249L194.924 122.804L183.582 116.249Z" fill="#0A31F9" stroke="white"/>
<path d="M183.671 95.7127V82.6256L194.991 76.0933L206.333 82.6256V95.7127L194.991 102.245L183.671 95.7127Z" fill="#0A31F9" stroke="white"/>
<path d="M167.945 147.636V134.548L179.287 127.994L190.607 134.548V147.636L179.287 154.168L167.945 147.636Z" fill="#0A31F9" stroke="white"/>
<path d="M151.457 158.104V145.017L162.777 138.485L174.119 145.017V158.104L162.777 164.659L151.457 158.104Z" fill="#0A31F9" stroke="white"/>
<path d="M134.814 168.731V155.644L146.134 149.112L157.476 155.644V168.731L146.134 175.286L134.814 168.731Z" fill="#0A31F9" stroke="white"/>
<path d="M167.945 106.359V93.2721L179.287 86.7397L190.607 93.2721V106.359L179.287 112.892L167.945 106.359Z" fill="#0A31F9" stroke="white"/>
<path d="M151.457 116.829V103.742L162.777 97.2095L174.119 103.742V116.829L162.777 123.384L151.457 116.829Z" fill="#0A31F9" stroke="white"/>
<path d="M134.814 127.458V114.371L146.134 107.838L157.476 114.371V127.458L146.134 134.013L134.814 127.458Z" fill="#0A31F9" stroke="white"/>
<path d="M118.169 178.596V165.509L129.489 158.977L140.831 165.509V178.596L129.489 185.128L118.169 178.596Z" fill="#0A31F9" stroke="white"/>
<path d="M118.169 157.702V144.615L129.489 138.061L140.831 144.615V157.702L129.489 164.235L118.169 157.702Z" fill="#0A31F9" stroke="white"/>
<path d="M118.169 137.768V124.681L129.489 118.126L140.831 124.681V137.768L129.489 144.301L118.169 137.768Z" fill="#0A31F9" stroke="white"/>
<path d="M127.699 256C126.577 255.996 125.476 255.703 124.5 255.15L19.1991 194.345C18.2254 193.783 17.417 192.974 16.8554 192C16.2938 191.026 15.9988 189.921 16 188.797V67.1205C15.9988 65.9962 16.2938 64.8914 16.8554 63.9174C17.417 62.9434 18.2254 62.1346 19.1991 61.5725L124.5 0.857189C125.473 0.295634 126.576 0 127.699 0C128.822 0 129.926 0.295634 130.898 0.857189L236.199 61.6619C237.16 62.2164 237.96 63.0112 238.521 63.9681C239.081 64.9251 239.384 66.0114 239.398 67.1205V188.797C239.399 189.921 239.104 191.026 238.543 192C237.981 192.974 237.173 193.783 236.199 194.345L130.898 255.15C129.922 255.703 128.821 255.996 127.699 256ZM28.7739 185.106L127.699 242.219L226.624 185.106V71.0131L127.699 13.7877L28.7739 70.9012V185.106Z" fill="#00A400"/>
</g>
<defs>
<clipPath id="clip0">
<rect width="256" height="256" fill="white"/>
</clipPath>
</defs>
</svg>
